<?xml version="1.0" standalone="no"?>
<!DOCTYPE svg PUBLIC "-//W3C//DTD SVG 20010904//EN"
 "http://www.w3.org/TR/2001/REC-SVG-20010904/DTD/svg10.dtd">
<svg version="1.0" xmlns="http://www.w3.org/2000/svg"
 width="1000.000000pt" height="800.000000pt" viewBox="0 100 1000.000000 800.000000"
 preserveAspectRatio="xMidYMid meet">
<metadata>
Created by SopThot
</metadata>
<g transform="translate(0.000000,980.000000) scale(0.100000,-0.100000)"
fill="#000000" stroke="none">
<path d="M6179 7801 c-362 -149 -711 -394 -1048 -735 -80 -80 -148 -146 -151
-146 -4 0 -13 7 -20 15 -18 22 -31 -1 -19 -33 6 -15 6 -29 0 -36 -176 -220
-230 -291 -296 -388 -43 -65 -81 -118 -84 -118 -3 0 -41 68 -84 150 -43 83
-82 150 -86 150 -9 0 -831 -476 -842 -488 -4 -4 -32 -108 -61 -232 l-54 -225
-113 -150 c-62 -82 -116 -151 -120 -153 -4 -1 -48 26 -98 62 -80 56 -100 65
-162 76 -38 6 -75 9 -80 6 -9 -6 -568 -717 -584 -742 -5 -9 6 -26 33 -50 22
-20 40 -41 40 -47 0 -6 -40 -49 -90 -96 l-89 -86 -25 -410 c-14 -225 -22 -413
-18 -417 4 -4 172 -85 374 -182 l368 -175 272 84 c150 46 273 83 274 82 2 -1
23 -67 49 -147 25 -80 49 -148 53 -152 4 -3 111 -54 237 -112 l230 -106 575
85 c315 47 579 85 586 85 6 0 47 64 89 143 43 78 78 143 80 145 1 1 42 14 91
28 76 22 90 24 99 11 6 -8 62 -101 125 -206 l115 -192 120 6 c66 3 280 14 475
25 195 11 468 25 605 31 138 7 252 15 255 19 3 4 129 57 280 120 151 62 280
118 286 124 6 6 39 129 74 273 l63 263 -27 237 c-14 131 -29 252 -31 270 -5
30 -11 33 -121 74 -101 37 -117 46 -129 73 -12 30 -161 185 -168 175 -2 -2
-20 -28 -41 -57 -38 -52 -150 -152 -171 -152 -6 0 -35 25 -65 55 -29 30 -58
51 -64 48 -6 -3 -8 -3 -4 2 10 11 -72 106 -84 98 -6 -3 -8 -2 -5 4 8 13 -37
56 -48 46 -4 -5 -5 -3 -2 3 8 15 -431 476 -446 468 -7 -4 -9 -4 -5 1 10 11 -9
33 -198 230 -91 96 -171 172 -177 168 -5 -3 -7 -1 -3 5 6 10 -99 126 -293 322
-52 52 -88 86 -80 75 13 -18 13 -19 -3 -6 -10 7 -16 17 -13 21 7 12 -136 161
-148 153 -5 -3 -7 -1 -4 4 9 14 -222 255 -236 246 -6 -3 -7 -1 -3 5 4 7 -12
32 -35 57 l-42 46 32 33 c17 18 28 36 24 40 -5 4 -3 6 2 4 12 -3 125 92 125
105 0 5 -6 5 -12 1 -7 -4 -4 2 6 14 21 25 35 30 16 7 -11 -13 -10 -14 2 -10
24 10 16 56 -19 103 -18 24 -39 63 -49 88 -24 64 -10 90 125 224 152 150 330
289 656 508 77 52 142 96 144 98 13 11 -26 -2 -130 -45z m-449 -295 c0 -3 -15
-14 -32 -26 l-33 -22 30 26 c31 27 35 29 35 22z m-70 -50 c0 -2 -33 -27 -72
-57 -143 -105 -305 -245 -438 -378 -115 -116 -178 -189 -368 -427 -13 -16 -7
-4 14 26 61 90 236 298 336 400 134 137 281 263 453 388 71 52 75 55 75 48z
m-250 -649 c0 -2 -10 -12 -22 -23 l-23 -19 19 23 c18 21 26 27 26 19z m-271
-183 c18 -8 41 -14 50 -14 9 0 37 -20 61 -45 24 -24 48 -41 53 -38 6 3 7 2 4
-4 -4 -6 46 -65 109 -132 101 -106 118 -120 133 -109 14 12 14 11 2 -4 -12
-16 -5 -26 59 -93 40 -41 78 -72 84 -68 6 3 8 2 3 -2 -8 -10 62 -87 73 -80 4
3 7 -1 6 -9 -1 -15 403 -438 413 -432 4 3 7 -6 6 -18 0 -15 -26 -51 -68 -96
l-69 -72 -26 31 c-15 17 -159 174 -321 349 l-294 319 -146 13 -147 12 -163
-106 c-90 -58 -167 -106 -170 -106 -3 0 -44 72 -89 160 l-84 161 35 42 c67 81
277 306 309 330 18 14 42 27 53 30 27 6 82 -2 124 -19z m-399 -98 c0 -2 -8
-10 -17 -17 -16 -13 -17 -12 -4 4 13 16 21 21 21 13z m1811 -1313 c13 -16 12
-17 -3 -4 -10 7 -18 15 -18 17 0 8 8 3 21 -13z m199 -208 c19 -19 32 -35 29
-35 -3 0 -20 16 -39 35 -19 19 -32 35 -29 35 3 0 20 -16 39 -35z"/>
<path d="M6713 5792 l-182 -45 132 -141 c259 -275 390 -411 398 -414 5 -2 9 2
9 10 0 7 9 81 20 163 11 83 21 164 23 180 1 24 -18 58 -92 163 -57 80 -100
132 -110 131 -9 -1 -98 -22 -198 -47z"/>
<path d="M1803 3857 c-16 -17 -22 -42 -27 -108 -6 -81 -5 -88 16 -112 16 -18
42 -29 88 -39 87 -18 126 -13 134 15 11 43 5 63 -43 139 -40 63 -59 82 -99
102 l-49 25 -20 -22z"/>
<path d="M8063 3752 c-100 -25 -97 -60 9 -113 72 -36 94 -32 131 27 38 64 29
78 -63 98 -8 2 -43 -3 -77 -12z"/>
<path d="M2735 3233 c-11 -3 -41 -29 -67 -59 -36 -41 -48 -62 -48 -87 0 -30 5
-35 66 -65 l65 -32 74 60 c41 33 77 65 81 71 3 6 -18 35 -47 65 -53 54 -68 60
-124 47z"/>
<path d="M5437 3225 c-38 -10 -60 -27 -112 -81 -55 -59 -64 -74 -65 -106 0
-49 18 -58 123 -58 109 0 121 11 135 129 9 71 8 88 -5 108 -8 12 -18 23 -22
22 -3 0 -27 -7 -54 -14z"/>
<path d="M7765 3203 c-134 -117 -135 -118 -125 -154 15 -53 88 -77 265 -85
l140 -6 39 34 c38 33 39 36 27 65 -7 17 -47 57 -95 95 -79 62 -85 65 -152 71
-65 6 -71 5 -99 -20z"/>
<path d="M3066 3149 c-32 -25 -28 -45 17 -101 39 -49 72 -49 151 0 76 48 87
74 42 101 -48 30 -172 30 -210 0z"/>
<path d="M6318 2893 c-94 -25 -90 -62 13 -114 45 -22 63 -27 82 -20 27 10 67
71 67 101 0 40 -78 56 -162 33z"/>
<path d="M2150 1900 c0 -5 5 -10 10 -10 6 0 10 5 10 10 0 6 -4 10 -10 10 -5 0
-10 -4 -10 -10z"/>
<path d="M536 1818 c-28 -39 -21 -48 39 -48 59 0 67 9 45 51 -15 27 -64 25 -84
-3z"/>
<path d="M986 1824 c-50 -50 -21 -144 44 -144 48 0 80 50 66 104 -13 53 -75 75
-110 40z"/>
<path d="M1616 1808 c-22 -31 -20 -74 4 -98 26 -26 55 -25 74 2 32 46 8 118
-39 118 -13 0 -31 -10 -39 -22z"/>
<path d="M8986 1791 c-11 -18 6 -42 28 -39 29 4 29 42 -1 46 -11 2 -24 -1 -27
-7z"/>
<path d="M9297 1790 c-18 -29 -18 -30 2 -30 17 0 21 6 21 30 0 17 -1 30 -3 30
-1 0 -11 -13 -20 -30z"/>
<path d="M9514 1785 c-9 -38 3 -75 26 -75 23 0 35 37 26 75 -4 16 -13 25 -26
25 -13 0 -22 -9 -26 -25z"/>
<path d="M9647 1780 c-18 -29 -18 -30 2 -30 17 0 21 6 21 30 0 17 -1 30 -3 30
-1 0 -11 -13 -20 -30z"/>
<path d="M7395 1770 c-4 -6 5 -10 19 -10 14 0 26 5 26 10 0 6 -9 10 -19 10 -11
0 -23 -4 -26 -10z"/>
<path d="M7674 1766 c-10 -26 4 -48 28 -44 17 2 23 10 23 28 0 18 -6 26 -23 28
-13 2 -25 -3 -28 -12z"/>
<path d="M8034 1766 c-10 -26 4 -48 28 -44 17 2 23 10 23 28 0 18 -6 26 -23 28
-13 2 -25 -3 -28 -12z"/>
<path d="M8504 1766 c-10 -26 4 -48 28 -44 17 2 23 10 23 28 0 18 -6 26 -23 28
-13 2 -25 -3 -28 -12z"/>
</g>
</svg>
